<svg width="10" height="6" viewBox="0 0 10 6" fill="none" xmlns="http://www.w3.org/2000/svg">
<path d="M0.864258 3.34375L0.520508 3.34375L0.520508 2.65625L0.864258 2.65625L0.864258 3.34375ZM8.93783 2.75693C9.07208 2.89117 9.07208 3.10882 8.93783 3.24307L6.75022 5.43068C6.61598 5.56492 6.39833 5.56492 6.26409 5.43068C6.12984 5.29644 6.12984 5.07879 6.26409 4.94454L8.20863 3L6.26409 1.05546C6.12984 0.921213 6.12984 0.703563 6.26409 0.56932C6.39833 0.435077 6.61598 0.435077 6.75022 0.56932L8.93783 2.75693ZM0.864258 2.65625L8.69477 2.65625L8.69477 3.34375L0.864258 3.34375L0.864258 2.65625Z" fill="#220303"/>
</svg>
