<svg width="10" height="6" viewBox="0 0 10 6" fill="none" xmlns="http://www.w3.org/2000/svg">
<path d="M8.85059 3.34387L9.19434 3.34387L9.19434 2.65637L8.85059 2.65637L8.85059 3.34387ZM0.77701 2.75705C0.642768 2.8913 0.642768 3.10895 0.77701 3.24319L2.96462 5.4308C3.09886 5.56504 3.31651 5.56504 3.45076 5.4308C3.585 5.29656 3.585 5.07891 3.45076 4.94467L1.50621 3.00012L3.45076 1.05558C3.585 0.921335 3.585 0.703685 3.45076 0.569442C3.31652 0.435199 3.09886 0.435199 2.96462 0.569442L0.77701 2.75705ZM8.85059 2.65637L1.02008 2.65637L1.02008 3.34387L8.85059 3.34387L8.85059 2.65637Z" fill="#220303"/>
</svg>
