<svg width="14" height="15" viewBox="0 0 14 15" fill="none" xmlns="http://www.w3.org/2000/svg">
<path d="M12.577 6.76507L11.7837 5.84341C11.632 5.66841 11.5095 5.34174 11.5095 5.10841V4.11674C11.5095 3.49841 11.002 2.99091 10.3837 2.99091H9.39201C9.16451 2.99091 8.83201 2.86841 8.65701 2.71674L7.73534 1.92341C7.33284 1.57924 6.67367 1.57924 6.26534 1.92341L5.34951 2.72257C5.17451 2.86841 4.84201 2.99091 4.61451 2.99091H3.60534C2.98701 2.99091 2.47951 3.49841 2.47951 4.11674V5.11424C2.47951 5.34174 2.35701 5.66841 2.21117 5.84341L1.42367 6.77091C1.08534 7.17341 1.08534 7.82674 1.42367 8.22924L2.21117 9.15674C2.35701 9.33174 2.47951 9.65841 2.47951 9.88591V10.8834C2.47951 11.5017 2.98701 12.0092 3.60534 12.0092H4.61451C4.84201 12.0092 5.17451 12.1317 5.34951 12.2834L6.27117 13.0767C6.67367 13.4209 7.33284 13.4209 7.74117 13.0767L8.66284 12.2834C8.83784 12.1317 9.16451 12.0092 9.39784 12.0092H10.3895C11.0078 12.0092 11.5153 11.5017 11.5153 10.8834V9.89174C11.5153 9.66424 11.6378 9.33174 11.7895 9.15674L12.5828 8.23507C12.9212 7.83258 12.9212 7.16757 12.577 6.76507ZM9.42701 6.39757L6.60951 9.21508C6.52784 9.29674 6.41701 9.34341 6.30034 9.34341C6.18367 9.34341 6.07284 9.29674 5.99117 9.21508L4.57951 7.80341C4.41034 7.63424 4.41034 7.35424 4.57951 7.18507C4.74867 7.01591 5.02867 7.01591 5.19784 7.18507L6.30034 8.28758L8.80867 5.77924C8.97784 5.61008 9.25784 5.61008 9.42701 5.77924C9.59617 5.94841 9.59617 6.22841 9.42701 6.39757Z" fill="#220303"/>
</svg>
