<svg width="67" height="15" viewBox="0 0 67 15" fill="none" xmlns="http://www.w3.org/2000/svg">
<path d="M3.89727 13.3333L4.84518 9.23542L1.66602 6.47917L5.86602 6.11458L7.49935 2.25L9.13268 6.11458L13.3327 6.47917L10.1535 9.23542L11.1014 13.3333L7.49935 11.1604L3.89727 13.3333Z" fill="#FAD84C"/>
<path d="M17.0223 13.3333L17.9702 9.23542L14.791 6.47917L18.991 6.11458L20.6243 2.25L22.2577 6.11458L26.4577 6.47917L23.2785 9.23542L24.2264 13.3333L20.6243 11.1604L17.0223 13.3333Z" fill="#FAD84C"/>
<path d="M30.1473 13.3333L31.0952 9.23542L27.916 6.47917L32.116 6.11458L33.7493 2.25L35.3827 6.11458L39.5827 6.47917L36.4035 9.23542L37.3514 13.3333L33.7493 11.1604L30.1473 13.3333Z" fill="#FAD84C"/>
<path d="M43.2723 13.3333L44.2202 9.23542L41.041 6.47917L45.241 6.11458L46.8743 2.25L48.5077 6.11458L52.7077 6.47917L49.5285 9.23542L50.4764 13.3333L46.8743 11.1604L43.2723 13.3333Z" fill="#FAD84C"/>
<path d="M56.3973 13.3333L57.3452 9.23542L54.166 6.47917L58.366 6.11458L59.9993 2.25L61.6327 6.11458L65.8327 6.47917L62.6535 9.23542L63.6014 13.3333L59.9993 11.1604L56.3973 13.3333Z" fill="#FAD84C"/>
</svg>
